<svg xmlns="http://www.w3.org/2000/svg" width="156.268" height="29.808"><g data-name="グループ 5"><path data-name="パス 1" d="M7.454 29.608h1.92v-10.6h.04l1.6 10.6h1.84l1.6-10.6h.04v10.6h2.08v-14h-3.14l-1.4 10.02h-.04l-1.4-10.02h-3.14zm13.94.2c2.16 0 3.34-1.28 3.34-3.52v-7.36c0-2.24-1.18-3.52-3.34-3.52s-3.34 1.28-3.34 3.52v7.36c0 2.24 1.18 3.52 3.34 3.52zm0-2c-.7 0-1.14-.38-1.14-1.38v-7.64c0-1 .44-1.38 1.14-1.38s1.14.38 1.14 1.38v7.64c0 1-.44 1.38-1.14 1.38zm4.82 1.8h1.96v-10.22h.04l2.64 10.22h2.26v-14h-1.96v8.38h-.04l-2.14-8.38h-2.76zm7.96 0h2.04l.4-2.74h2.5v-.04l.4 2.78h2.2l-2.28-14h-2.98zm2.7-4.64l.96-6.92h.04l.98 6.92zm9.1 4.64h5.82v-2h-3.62v-12h-2.2zm6.88 0h2.2v-14h-2.2zm6.7.2c2.16 0 3.32-1.28 3.32-3.56 0-1.74-.58-2.86-2.42-4.48-1.44-1.26-1.9-2-1.9-3.02 0-.96.4-1.34 1.1-1.34s1.1.38 1.1 1.38v.72h2.08v-.58c0-2.24-1.06-3.52-3.2-3.52s-3.28 1.28-3.28 3.48c0 1.6.6 2.74 2.44 4.36 1.44 1.26 1.88 2 1.88 3.16 0 1.04-.44 1.4-1.14 1.4s-1.14-.36-1.14-1.36v-.96h-2.08v.8c0 2.24 1.08 3.52 3.24 3.52zm3.94-.2h2.04l.4-2.74h2.5v-.04l.4 2.78h2.2l-2.28-14h-2.98zm2.7-4.64l.96-6.92h.04l.98 6.92zm10.82 4.64h2.2v-12h2.3v-2h-6.8v2h2.3zm4.06 0h2.04l.4-2.74h2.5v-.04l.4 2.78h2.2l-2.28-14h-2.98zm2.7-4.64l.96-6.92h.04l.98 6.92zm5.9 4.64h5.82v-2h-3.62v-12h-2.2zm6.88 0h2.2v-4.46l.88-1.78 1.86 6.24h2.3l-2.66-8.86 2.62-5.14h-2.2l-2.8 5.9v-5.9h-2.2zm11.16-6h4.4v-2h-4.4zm8.92 6h2.2v-6.1h2.84v-2h-2.84v-3.9h3.62v-2h-5.82zm5.66 0h2.04l.4-2.74h2.5v-.04l.4 2.78h2.2l-2.28-14h-2.98zm2.7-4.64l.96-6.92h.04l.98 6.92zm5.9 4.64h1.96v-10.22h.04l2.64 10.22h2.26v-14h-1.96v8.38h-.04l-2.14-8.38h-2.76zm12.2-3.7h1.64l.28-4.46v-5.84h-2.2v5.84zm-.24 3.7h2.12v-2.12h-2.12zm4.44-3.7h1.64l.28-4.46v-5.84h-2.2v5.84zm-.24 3.7h2.12v-2.12h-2.12z"/><g data-name="グループ 4"><path data-name="パス 2" d="M20.354 5.176v-1.68h3.272q.24 0 .24-.216t-.24-.216h-3.272v-1.8h2.224q.24 0 .24-.216t-.24-.216h-4.3c-.152 0-.24.072-.24.216s.088.216.24.216h1.236v1.8h-1.752c-.152 0-.24.072-.24.216s.088.216.24.216h1.752c0 .56 0 1.12.008 1.688a1.4 1.4 0 00.488 1.152 2.1 2.1 0 001.1.36 8.878 8.878 0 002.052-.112.231.231 0 00.224-.256v-.192a.2.2 0 00-.264-.216 7.346 7.346 0 01-1.888.16 1.151 1.151 0 01-.7-.216.948.948 0 01-.18-.688zm9.84-2.528h2.256c.16 0 .24-.08.24-.224s-.08-.216-.24-.216h-2.264V.416a.212.212 0 00-.24-.24h-.376a.2.2 0 00-.24.224v1.808h-2.824c-.16 0-.248.08-.24.216a.215.215 0 00.24.224h2.828c-.04 1.84-.456 3.048-1.912 3.992-.128.088-.168.184-.1.288a.223.223 0 00.3.064 4.457 4.457 0 002.572-4.344zm6.568 1.368V3.44a.191.191 0 00-.216-.216h-.624a.191.191 0 00-.216.216v.576a.191.191 0 00.216.216h.624a.191.191 0 00.216-.216zm8.36-1.376V.708a.212.212 0 00-.24-.24h-.4a.215.215 0 00-.24.24v1.928a3.824 3.824 0 01-2.52 4.036c-.144.064-.2.152-.16.272s.136.152.288.1a4.3 4.3 0 003.272-4.404zM40.934.928v3.168a.219.219 0 00.24.24h.344a.215.215 0 00.24-.24V.928a.215.215 0 00-.24-.24h-.344a.219.219 0 00-.24.24zm12.64 1.648h1.448c.16 0 .24-.072.24-.208s-.088-.208-.24-.208h-1.444V.744a.215.215 0 00-.24-.24h-.368a.215.215 0 00-.24.24V2.16h-1.832V.768a.215.215 0 00-.24-.24h-.344a.219.219 0 00-.24.24V2.16H48.65c-.152 0-.24.072-.24.208s.08.208.24.208h1.424v1.832a.215.215 0 00.24.24h.336a.215.215 0 00.24-.24V2.576h1.844a5.782 5.782 0 01-.4 2.64 2.88 2.88 0 01-1.62 1.344c-.152.064-.208.152-.16.264a.216.216 0 00.288.12 3.35 3.35 0 002.568-2.48 8.21 8.21 0 00.168-1.888zm1.224-.992V.696c0-.136-.08-.2-.216-.2h-.048c-.144 0-.208.064-.208.2v.888c0 .136.064.2.208.2h.048c.14 0 .22-.064.22-.2zm.72 0V.696c0-.136-.064-.2-.208-.2h-.048c-.136 0-.216.064-.216.2v.888c0 .136.08.2.216.2h.048c.148 0 .212-.064.212-.2zM60.466 6.4c-.248.048-.224.376.024.36a4.188 4.188 0 002.544-.936 2.866 2.866 0 00.864-2.68 2.883 2.883 0 00-1.824-2.128 3.659 3.659 0 00-4.616 2.112c-.3.848-.352 2.6.816 2.768 1.152.168 1.808-1.4 2.064-2.088a8.079 8.079 0 00.472-2.552 3.242 3.242 0 011.024.2 2.29 2.29 0 011.232 1.8 2.779 2.779 0 01-.592 2.152 3.342 3.342 0 01-2.008.992zm-2.272-3.056a3.007 3.007 0 011.94-2.024 8.8 8.8 0 01-.464 2.3c-.192.544-.744 1.792-1.28 1.664s-.348-1.46-.196-1.94zM69.618.432H68.29V.216A.191.191 0 0068.074 0h-.36a.191.191 0 00-.216.216v1.112h-1.176a.191.191 0 00-.216.216v1.248a11.131 11.131 0 01-.372 3.656.272.272 0 00.04.288l.224.3c.1.136.232.128.3-.032a7.21 7.21 0 00.456-1.952 9.746 9.746 0 01.328.968.181.181 0 00.28.128l.168-.08v.424l-.824.144c-.136.024-.2.1-.192.224a.191.191 0 00.24.192c.96-.152 1.96-.36 2.952-.616a.216.216 0 00.184-.224c0-.152-.088-.224-.24-.184l-.5.12V5.76l.136.064a.2.2 0 00.3-.088 10.592 10.592 0 00.5-1.032.192.192 0 00-.12-.28l-.216-.08a.2.2 0 00-.28.136 6.959 6.959 0 01-.312.76v-.732a.191.191 0 00-.224-.22h-.272a.191.191 0 00-.216.216v1.804c-.056.008-.128.024-.2.04v-1.84a.191.191 0 00-.216-.216h-.28a.191.191 0 00-.216.216v.872s-.16-.5-.3-.856a.19.19 0 00-.3-.116l-.144.072c.024-.352.032-.776.032-1.3v-.16l.472-.056v.44c0 .264.008.328.232.432a3.637 3.637 0 001 .08 4.075 4.075 0 00.936-.056c.32-.08.392-.128.448-.248a1.062 1.062 0 00.1-.416.205.205 0 00-.2-.24l-.264-.032c-.152-.016-.232.048-.232.2v.008a.379.379 0 01-.4.432c-.072 0-.184.008-.352 0-.48-.024-.5-.072-.5-.32v-.368l1-.136a.2.2 0 00.192-.24l-.02-.132-1.176.14v-.36a.191.191 0 00-.216-.216h-.328a.191.191 0 00-.216.216v.456l-.472.056v-.92h2.472c-.04.112-.088.216-.12.3a.189.189 0 00.1.288l.184.08a.2.2 0 00.288-.1 4.359 4.359 0 00.184-.42.617.617 0 00.048-.264v-.08a.191.191 0 00-.216-.216h-1.48V.792h1.328q.216 0 .216-.144a.191.191 0 00-.212-.216zm1.516-.264h-.36a.191.191 0 00-.216.216c0 .576.024 1.176.056 1.816l-.48.048a.2.2 0 00-.2.232.193.193 0 00.232.192l.468-.04a16.528 16.528 0 00.416 2.7 5.184 5.184 0 01-1.496 1.332.19.19 0 00-.08.3l.04.056a.205.205 0 00.3.072 6.218 6.218 0 001.452-1.084c.288.728.7 1.128 1.12 1.128.5 0 .712-.528.808-1.664a.227.227 0 00-.168-.264l-.3-.1c-.144-.048-.232.024-.248.184-.064.824-.128 1.192-.208 1.072a4.24 4.24 0 01-.396-1.076 7.419 7.419 0 00.944-1.864.192.192 0 00-.128-.272l-.256-.1a.2.2 0 00-.28.136 7.447 7.447 0 01-.488 1.176 23.86 23.86 0 01-.232-1.808l1.416-.136c.144-.016.2-.1.2-.24v-.008a.187.187 0 00-.232-.192l-1.416.136A39.37 39.37 0 0171.346.38a.191.191 0 00-.212-.212zm.832.184l-.192.1a.185.185 0 00-.08.3c.16.248.32.528.48.824a.19.19 0 00.288.1l.216-.1a.191.191 0 00.1-.288c-.152-.264-.32-.544-.512-.84a.2.2 0 00-.304-.096zm8.776.072h-5q-.216 0-.216.192a.191.191 0 00.216.216h5a.189.189 0 00.216-.208c-.004-.128-.076-.2-.224-.2zm.744 1.12h-6.5a.189.189 0 00-.216.208.191.191 0 00.216.216h6.5a.191.191 0 00.216-.216.189.189 0 00-.22-.208zm-.86 1.164h-4.784c-.144 0-.216.064-.216.176a.191.191 0 00.216.216h4.784c.144 0 .216-.072.216-.2s-.072-.192-.216-.192zm0 1.128h-4.784c-.144 0-.216.064-.216.184a.191.191 0 00.216.216h4.784c.144 0 .216-.072.216-.2s-.072-.204-.216-.204zm.328 3.2V5.184a.191.191 0 00-.22-.216h-5a.191.191 0 00-.216.216v1.848a.191.191 0 00.216.216h.384a.191.191 0 00.216-.216v-.136h3.8v.136a.191.191 0 00.216.216h.384a.191.191 0 00.22-.216zm-.82-.548h-3.8V5.376h3.8zM94.562.936H89.41c-.16 0-.232.08-.232.216a.209.209 0 00.24.216h4.36a8.122 8.122 0 01-3.644 5.048c-.136.08-.176.176-.12.3s.16.16.3.088a8.137 8.137 0 004.5-5.52.251.251 0 00-.252-.348zm8.312 1.36h-4.272a.189.189 0 100 .376h3.5a3.015 3.015 0 01-.968 1.152c.016-.088.024-.176.032-.264a.2.2 0 00-.232-.252h-.38a.225.225 0 00-.248.24 6.247 6.247 0 01-.328 1.86 3.037 3.037 0 01-1.224 1.536c-.232.152-.048.448.2.32a3.616 3.616 0 001.656-1.584 4.776 4.776 0 00.424-1.288 4.009 4.009 0 002.064-1.684c.136-.22.048-.412-.224-.412zm6.056.064l.248-.36a.216.216 0 00-.08-.336 12.74 12.74 0 00-2.1-.984.233.233 0 00-.32.112L106.67.8a.212.212 0 00.1.32 14.574 14.574 0 011.832 1.288.2.2 0 00.332-.048zm-1.936 4.008l.152.34a.218.218 0 00.312.128 11.43 11.43 0 005.416-4.772.205.205 0 00-.056-.312.221.221 0 00-.32.072 12.881 12.881 0 01-5.376 4.224.219.219 0 00-.128.32zm12.984-3.824h1.448a.208.208 0 100-.416h-1.448V.708a.215.215 0 00-.24-.24h-.368a.215.215 0 00-.24.24v1.42h-1.832V.736a.215.215 0 00-.24-.24h-.344a.219.219 0 00-.24.24v1.392h-1.424a.208.208 0 100 .416h1.424v1.832a.215.215 0 00.24.24h.336a.215.215 0 00.24-.24V2.544h1.844a5.782 5.782 0 01-.4 2.64 2.755 2.755 0 01-1.612 1.344.201.201 0 10.12.384 3.3 3.3 0 002.568-2.48 8.21 8.21 0 00.168-1.888zm7.936 4.224v-4.3a10.661 10.661 0 001.7-1.544.218.218 0 00-.008-.344l-.256-.232a.219.219 0 00-.344.024 13.175 13.175 0 01-5.008 3.8.206.206 0 10.168.376 13.243 13.243 0 002.928-1.544v3.764a.215.215 0 00.24.24h.344a.212.212 0 00.236-.24zm10.56-2.12l.152-.28a.246.246 0 00-.1-.336 22.1 22.1 0 00-3.3-1.512V.632a.24.24 0 00-.248-.248h-.3a.24.24 0 00-.248.248v6.12a.24.24 0 00.248.248h.3a.24.24 0 00.248-.248V2.976c.808.424 1.808 1.04 2.888 1.76a.246.246 0 00.36-.088z"/><g data-name="コンポーネント 1 – 1" fill="none" stroke="#000" stroke-width=".6"><path data-name="線 1" d="M9.134 11.108l-3-8"/><path data-name="線 2" d="M6.134 11.108l-6-3"/></g><g data-name="グループ 3" fill="none" stroke="#000" stroke-width=".6"><path data-name="線 1" d="M147.134 11.108l3-8"/><path data-name="線 2" d="M150.134 11.108l6-3"/></g></g></g></svg>