<svg xmlns="http://www.w3.org/2000/svg" width="320" height="320"><defs><clipPath id="a"><path d="M0 0h320v320H0z"/></clipPath></defs><g clip-path="url(#a)" fill="#707070"><path d="M72.925 207h8.61v-40.18h16.359v-8.036H81.535V83.016h-8.61v75.768H20.4l48.79-156.7h-9.18L10.359 160.793v6.027h62.566zm46.781-55.678c0 38.745 13.494 57.978 40.754 57.978s40.754-19.229 40.754-57.974V57.76c0-38.745-13.489-57.974-40.754-57.974s-40.754 19.229-40.754 57.974zm72.9-1.435c-.006 35.013-10.334 51.373-32.146 51.373-22.1 0-32.144-16.359-32.144-51.373V59.2c0-35.014 10.045-51.373 32.144-51.373 21.812 0 32.144 16.359 32.144 51.373zM285.3 207h8.61v-40.18h16.359v-8.036h-16.354V83.016H285.3v75.768h-52.516l48.79-156.7h-9.184l-49.651 158.709v6.027H285.3zM10.135 294.94H15.9c3.87 0 6.165-.63 7.875-2.16 1.935-1.755 2.79-4.23 2.79-7.92 0-3.42-.72-5.67-2.385-7.425-1.755-1.845-4.05-2.565-8.28-2.565H5.32V307h4.815zm-.09-3.915V278.74H15.9c4.095 0 5.9 1.845 5.9 6.165 0 4.23-1.8 6.12-5.9 6.12zm34.605 2.385h-5.04c-6.48 0-8.64 1.8-8.64 7.065 0 5.13 2.115 6.975 7.875 6.975 3.33 0 4.995-.495 6.435-1.935L45.6 307h3.64v-14.13c0-2.835-.225-4.32-.9-5.58-1.26-2.385-3.87-3.6-7.695-3.6-3.87 0-6.615 1.17-8.64 3.645l3.15 2.34a6.363 6.363 0 015.04-2.3c3.15 0 4.455 1.395 4.455 4.725zm0 3.24v2.97c0 1.665-.135 2.3-.54 2.88-.72.945-1.98 1.35-4.14 1.35-3.465 0-4.635-.855-4.635-3.465 0-2.7 1.305-3.735 4.77-3.735zm25.2 10.53c-.135 4.725-1.8 6.795-5.58 6.795a5.06 5.06 0 01-4.725-2.385l-3.42 1.98c1.755 2.79 4.32 4.005 8.325 4.005 6.7 0 9.99-3.555 9.99-10.89V284.14h-3.555l-.4 1.8c-1.62-1.62-3.375-2.25-6.435-2.25-5.9 0-8.505 3.1-8.505 10.17v3.42c-.005 7.02 2.605 10.17 8.455 10.17 2.655 0 4.41-.54 5.9-1.89zm-9.765-13c0-4.635 1.53-6.795 4.86-6.795 3.285 0 4.9 2.025 4.9 6.12v4.14c0 4.1-1.62 6.12-4.9 6.12-3.33 0-4.86-2.16-4.86-6.8zm25.425 2.47H100v-1.8c0-7.83-2.835-11.16-9.54-11.16s-9.54 3.33-9.54 11.16v1.75c0 7.52 3.015 10.85 9.81 10.85 4.365 0 6.93-1.125 8.82-3.915l-3.42-2.025a5.511 5.511 0 01-4.95 2.3c-3.69 0-5.67-2.2-5.67-6.345zm0-3.285v-.4a7.709 7.709 0 01.9-3.69c.81-1.4 2.115-2.025 4.185-2.025 3.285 0 5.04 1.98 5.04 5.67v.45zM115.885 307h4.68v-24.03l14.31 24.03h4.68v-32.13h-4.68v24.03l-14.31-24.03h-4.68zm30.87-9.675c0 7.02 2.97 10.125 9.675 10.125 6.66 0 9.63-3.1 9.63-10.125v-3.51c0-7.02-2.97-10.125-9.63-10.125-6.705 0-9.675 3.1-9.675 10.125zm14.715-.315c0 4.68-1.53 6.75-5.085 6.75-3.51 0-5.04-2.07-5.04-6.75v-2.88c0-4.68 1.53-6.75 5.04-6.75 3.555 0 5.085 2.07 5.085 6.75zm11.835-9.18v10.62c0 6.975 1.53 8.55 8.37 8.55h.81v-3.78h-.72c-2.97.09-3.87-.99-3.87-4.32v-11.07h4.5v-3.69h-4.5v-6.975h-4.365l-.225 6.975h-2.655v3.69zM197.65 307h4.815v-14.04h12.06V289h-12.06v-10.17h14.265v-3.96h-19.08zm23.175-9.675c0 7.02 2.97 10.125 9.675 10.125 6.66 0 9.63-3.1 9.63-10.125v-3.51c0-7.02-2.97-10.125-9.63-10.125-6.705 0-9.675 3.1-9.675 10.125zm14.715-.315c0 4.68-1.53 6.75-5.085 6.75-3.51 0-5.04-2.07-5.04-6.75v-2.88c0-4.68 1.53-6.75 5.04-6.75 3.555 0 5.085 2.07 5.085 6.75zm10.935-12.87v13.1a17.917 17.917 0 00.675 5.8c1.035 2.925 3.555 4.41 7.425 4.41 2.97 0 4.77-.81 6.03-2.79l.495 2.34h3.33v-22.86h-4.59v11.7c0 5.58-1.26 7.695-4.5 7.695-3.06 0-4.275-1.935-4.275-6.75V284.14zM271.72 307h4.59v-11.7c0-5.58 1.305-7.7 4.77-7.7 3.24 0 4.5 1.935 4.5 6.8V307h4.59v-13.1a18.1 18.1 0 00-.675-5.8c-1.08-2.925-3.645-4.41-7.65-4.41-3.015 0-4.815.81-6.255 2.745l-.36-2.3h-3.51zm40.18 0h3.555v-32.13h-4.59v10.71c-.765-.585-1.215-.9-1.26-.945a9.478 9.478 0 00-4.5-.945c-5.94 0-8.55 3.1-8.55 10.17v3.42c0 7.11 2.61 10.17 8.685 10.17 2.3 0 4.59-.585 5.49-1.44a6.919 6.919 0 00.585-.54 1.715 1.715 0 01.27-.225zm-10.8-12.825c0-4.635 1.53-6.795 4.86-6.795 3.285 0 4.9 2.025 4.9 6.12v4.14c0 4.1-1.62 6.12-4.9 6.12-3.33 0-4.86-2.16-4.86-6.8z"/></g></svg>
