<svg xmlns="http://www.w3.org/2000/svg" width="320" height="48"><defs><clipPath id="a"><path d="M0 0h320v48H0z"/></clipPath></defs><g data-name="カスタムサイズ – 1" clip-path="url(#a)"><path data-name="パス 1" d="M8.64 23.6L6 10.32H1.6V37h3.12V18.16L7.84 37h1.6l3.12-18.84V37h3.2V10.32h-4.48zm22.8-6.52c0-3.16-.12-3.84-.84-5a5.3 5.3 0 00-4.44-2.16 5.3 5.3 0 00-4.44 2.16c-.72 1.16-.84 1.84-.84 5V30.2c0 3.16.12 3.84.84 5a5.226 5.226 0 004.44 2.2 5.226 5.226 0 004.44-2.2c.72-1.16.84-1.8.84-5zm-3.72 14.68c0 1.52-.48 2.16-1.56 2.16-1.12 0-1.56-.64-1.56-2.16v-16.2c0-1.52.48-2.16 1.56-2.16 1.12 0 1.56.64 1.56 2.16zm20.64-21.44h-3.72v15.72l-4.92-15.72h-3.2V37h3.72V23l4.4 14h3.72zM57.44 31h3.36l.68 6h3.64l-3.48-26.68h-4.8L53.2 37h3.6zm2.96-3.48h-2.56l1.28-12.36zM78.64 37h9v-3.48h-5.28v-23.2h-3.72zm16.92-26.68h-3.72V37h3.72zm4.6 18.96c-.04.64-.04.88-.04 1.44 0 2.32.28 3.44 1.16 4.64a5.09 5.09 0 004.48 2.04c3.44 0 5.4-2 5.4-5.56a14.012 14.012 0 00-2.68-7.52l-1.88-2.72c-2.48-3.72-2.64-4.08-2.64-5.72 0-1.6.56-2.48 1.56-2.48.84 0 1.44.6 1.56 1.68a15.1 15.1 0 01.12 2.4l3.64-.36a12.655 12.655 0 00-.2-3.32 4.7 4.7 0 00-4.88-3.88c-3.32 0-5.48 2.24-5.48 5.76 0 2.36.72 4.2 3.04 7.64l1.84 2.72c1.84 2.44 2.28 3.48 2.28 5.24 0 1.72-.56 2.64-1.68 2.64-1.48 0-1.92-.88-1.92-3.72v-1.08zM119.6 31h3.36l.68 6h3.64l-3.48-26.68H119L115.36 37h3.6zm2.96-3.48H120l1.28-12.36zm30.08-17.2h-3.72v15.72L144 10.32h-3.2V37h3.72V23l4.4 14h3.72zm15.68 6.76c0-3.16-.12-3.84-.84-5a5.3 5.3 0 00-4.44-2.16 5.3 5.3 0 00-4.44 2.16c-.72 1.16-.84 1.84-.84 5V30.2c0 3.16.12 3.84.84 5a5.226 5.226 0 004.44 2.2 5.226 5.226 0 004.44-2.2c.72-1.16.84-1.8.84-5zm-3.72 14.68c0 1.52-.48 2.16-1.56 2.16-1.12 0-1.56-.64-1.56-2.16v-16.2c0-1.52.48-2.16 1.56-2.16 1.12 0 1.56.64 1.56 2.16zm17.12-2.48c-.04.64-.04.88-.04 1.44 0 2.32.28 3.44 1.16 4.64a5.09 5.09 0 004.48 2.04c3.44 0 5.4-2 5.4-5.56a14.012 14.012 0 00-2.68-7.52l-1.88-2.72c-2.48-3.72-2.64-4.08-2.64-5.72 0-1.6.56-2.48 1.56-2.48.84 0 1.44.6 1.56 1.68a15.1 15.1 0 01.12 2.4l3.64-.36a12.656 12.656 0 00-.2-3.32 4.7 4.7 0 00-4.88-3.88c-3.32 0-5.48 2.24-5.48 5.76 0 2.36.72 4.2 3.04 7.64l1.84 2.72c1.84 2.44 2.28 3.48 2.28 5.24 0 1.72-.56 2.64-1.68 2.64-1.48 0-1.92-.88-1.92-3.72v-1.08zm19.2-18.96h-3.72V37h3.72zM206.08 37h9v-3.48h-5.28v-23.2h-3.72zm13.2 0h9v-3.48H223v-23.2h-3.72zm15.16-11.08V37h3.72V25.92l4.16-15.6h-3.92l-2.04 9.84-2.04-9.84h-4.04zm23 11.08h3.72V13.8h3.64v-3.48h-10.84v3.48h3.48zm14.24-6h3.36l.68 6h3.64l-3.48-26.68h-4.8L267.44 37h3.6zm2.96-3.48h-2.56l1.28-12.36zM284 37h9v-3.48h-5.28v-23.2H284zm21-17.68l3.36-9h-3.8l-3.64 10.04V10.32h-3.72V37h3.72v-8.24l1.6-4.36 2.76 12.6h3.88z" fill="#4598ca"/></g></svg>
