<svg xmlns="http://www.w3.org/2000/svg" width="233.394" height="21.336"><path data-name="パス 2" d="M7.902 8.196a30.915 30.915 0 00-2.97 2.088l.432.468a11.4 11.4 0 015.544-2.43v-.936a8.619 8.619 0 01-1.26.09H2.304a5.855 5.855 0 01-1.08-.072v.864a6.8 6.8 0 011.08-.072zm4.158 9.684a28.47 28.47 0 01-5.328.36 15.733 15.733 0 01-3.942-.328 1.919 1.919 0 01-1.548-2 3.476 3.476 0 011.6-2.9l-.558-.576a1.971 1.971 0 01-.468.486A4.779 4.779 0 000 16.548a3.363 3.363 0 002.232 3.384 13.508 13.508 0 004.95.58c1.17 0 2.412-.036 3.042-.072.882-.072.954-.072 1.836-.108zm12.6 2.214l.162.72a4.2 4.2 0 01.666-.144c4.878-.63 7.25-2.934 7.25-7.038s-2.84-6.714-7.3-6.714c-4.842 0-8.1 3.132-8.1 7.776 0 2.664 1.584 4.752 3.6 4.752 3.042 0 4.968-4.482 5.094-11.9A4.115 4.115 0 0129.29 9.67a7.693 7.693 0 01.9 3.87c0 2.9-1.062 4.914-3.1 5.94a4.977 4.977 0 01-2.322.612zM23.652 8.268c-.126 5.994-1.278 10.458-2.664 10.458-.846 0-1.494-1.746-1.494-4.014a9.513 9.513 0 01.756-4.05 5.358 5.358 0 013.42-2.916zm21.594-2.456h-7.3v5.352a4.847 4.847 0 01-.072.792l-.048.336v.072h3.312l-.024-.192a5.828 5.828 0 01-.1-1.008V6.772h11.76c0 4.176-.648 6.984-2.136 9.048a10.691 10.691 0 01-8.04 4.56l.336.96a2.734 2.734 0 01.912-.216c8.936-1.228 12.512-5.644 12.344-15.312h-7.776V2.74a5.127 5.127 0 01.072-.816l.024-.192.024-.192h-3.408a4.1 4.1 0 01.12 1.2zm20.712 4.1v8.448h-5.02a3.384 3.384 0 01-.888-.144v1.152a2.8 2.8 0 01.888-.144H73.59a2.806 2.806 0 01.84.144v-1.156a2.687 2.687 0 01-.84.144h-5.04V9.912h3.936a2.8 2.8 0 01.912.12v-1.1a3.926 3.926 0 01-.912.12H61.998a4.8 4.8 0 01-.888-.12v1.1a3.178 3.178 0 01.888-.12zM94.158 0v2.976h1.44V0zm2.832 0v2.976h1.44V0zm-4.252 4.728c-.24 4.416-1.272 7.56-3.36 10.224-1.872 2.52-5.568 4.8-7.944 4.9l.36.96a6.883 6.883 0 01.912-.312c9.24-1.9 13.536-7.056 13.944-16.728H79.878a5.828 5.828 0 01-1.008-.1l-.192-.024v1.2a7.011 7.011 0 011.2-.12zm9.264 2.376h-3.336a6.78 6.78 0 01-1.2-.12v1.228a6.187 6.187 0 011.2-.144h3.336v4.484a6.187 6.187 0 01-.144 1.2h3.312a6.562 6.562 0 01-.12-1.2V8.064h6.264v2.472c0 3.12-.48 4.9-1.824 6.576a8.3 8.3 0 01-5.592 3l.36 1.056a4.335 4.335 0 011.08-.336c6.288-1.176 9.144-4.416 9.1-10.32V8.064h3.12a4.9 4.9 0 01.816.072l.312.048.072.024V6.984a6.78 6.78 0 01-1.2.12h-3.12V2.976a4.626 4.626 0 01.072-.792l.024-.216.024-.192h-3.36v.072l.048.336a4.847 4.847 0 01.072.792v4.128h-6.264V2.976a6.78 6.78 0 01.12-1.2h-3.312a6.187 6.187 0 01.144 1.2zm16.18 6.168a3.592 3.592 0 011.1-.312 29.618 29.618 0 008.04-2.424v9.5a7.01 7.01 0 01-.12 1.2h3.36a6.781 6.781 0 01-.12-1.2V8.928a27.313 27.313 0 004.944-3.96 5.076 5.076 0 01.96-.888l-2.76-2.448a25.71 25.71 0 01-5.832 6.048c-2.952 2.352-7.728 4.56-9.912 4.608zm27.936 7.8a6.78 6.78 0 01-.12-1.2V9.192a24.333 24.333 0 018.568 6.168l2.088-3.048a1.953 1.953 0 01-.288-.192c-.312-.192-.576-.36-.984-.6a27.815 27.815 0 00-9.384-3.308v-5.38a6.78 6.78 0 01.12-1.2h-3.408a5.353 5.353 0 01.12 1.2v17.04a7.01 7.01 0 01-.12 1.2zm20.244-1.014a5.558 5.558 0 01-.126-.72v-.054a.475.475 0 00-.018-.126c-.072-.72-.162-2.79-.162-3.906a43.393 43.393 0 01.666-8.064l-2.412-.306v.108a4.278 4.278 0 01-.036.5c-.252 2.736-.486 6.552-.486 8.046 0 .81.054 2.484.144 3.96l.018.36v.09a1.552 1.552 0 01.018.306zm7.976-11.178a16.055 16.055 0 00-2.7 1.908l.432.45a12.227 12.227 0 014.932-2.34V8.07a10.088 10.088 0 01-1.242.09h-6.066a5.085 5.085 0 01-.9-.09v.9a5.258 5.258 0 01.9-.09zm3.024 8.676a9.276 9.276 0 01-1.44.2c-1.674.108-1.674.108-2.52.108-3.132 0-4.446-.63-4.446-2.16a3.441 3.441 0 011.224-2.556l-.594-.486a2.477 2.477 0 01-.4.522 4.457 4.457 0 00-1.368 3.042 3.293 3.293 0 001.748 3.076 8.188 8.188 0 004.1.72c.738 0 1.494-.018 2.376-.072.792-.036.918-.036 1.314-.036zm4.446-7.092a9.9 9.9 0 011.458-.4 38.785 38.785 0 016.03-.846c2.826 0 4.3 1.368 4.3 4.014 0 2.844-1.89 4.824-5.454 5.724a11.241 11.241 0 01-2.286.378 1.9 1.9 0 01-.432-.036l.144.792a2.889 2.889 0 01.846-.126 14.874 14.874 0 007.128-2 5.409 5.409 0 002.736-4.782c0-3.1-2.016-4.842-5.58-4.842a54.519 54.519 0 00-8.046 1.044 4.8 4.8 0 01-1.062.144zm26.082 4.68a5.4 5.4 0 01-.72 1.872c-.54.972-.936 1.314-1.44 1.314-.648 0-1.206-.612-1.656-1.836-.522-1.458-.7-2.988-.738-6.372V9.06a7.415 7.415 0 01.09-1.26l-2.5-.162a8.236 8.236 0 01.054 1.062v.522c0 4.338.342 6.732 1.26 8.82.666 1.53 1.674 2.394 2.754 2.394a2.318 2.318 0 001.8-.99 11.584 11.584 0 001.472-3.134 1.839 1.839 0 01.342-.774zm8.244 1.674l-.054-.162c-.09-.324-.108-.4-.144-.522a14.437 14.437 0 00-4.842-7.4c-.144-.126-.234-.2-.252-.216a.611.611 0 01-.108-.108l-.864.738c1.764 1.224 3.492 5.328 3.582 8.5zm2.952-7.65a7.455 7.455 0 01.9-.09l9.612-.36a8.733 8.733 0 00-3.51 1.656 5.727 5.727 0 00-2.27 4.538 5.255 5.255 0 002.574 4.66 11.748 11.748 0 003.946 1.458l.828-2.646c-3.6-.36-5.652-1.944-5.652-4.32a4.716 4.716 0 012.592-4.032 9.2 9.2 0 014.5-1.278 5.3 5.3 0 01.792.054v-.99a3.727 3.727 0 01-.846.108l-12.564.4a4.559 4.559 0 01-.9-.072z"/></svg>
