<svg xmlns="http://www.w3.org/2000/svg" width="166.506" height="22.128"><path data-name="パス 4" d="M4.896 1.128a16.364 16.364 0 01-1.8-.072 9.637 9.637 0 01.12 1.8v2.856a9.181 9.181 0 01-.12 1.8 13.518 13.518 0 011.8-.072h12.72a13.639 13.639 0 011.416.072 9.331 9.331 0 01-.12-1.8V2.856a9.331 9.331 0 01.12-1.8 12.974 12.974 0 01-1.8.072zm10.656.96v1.656H6.576v-1.66zm0 2.568v1.828H6.576V4.66zm-4.488 5.256h9.36a10.119 10.119 0 011.44.1V8.86a10.119 10.119 0 01-1.44.1H1.704a10.351 10.351 0 01-1.44-.1v1.152a10.59 10.59 0 011.44-.1h.768v7.944c-.6.024-.792.024-1.8.024L0 17.832l.912 3.192.6-.24a62.211 62.211 0 006.576-2.136v1.776a7.517 7.517 0 01-.1 1.2l-.024.24h3.22a9.487 9.487 0 01-.12-1.44zm-2.976 0v1.772H5.4V9.908zm0 2.688v1.944H5.4V12.6zm0 2.856v2.112c-1.176.1-1.368.12-1.584.12l-.624.048-.48.024v-2.3zm5.088-3.192a11.509 11.509 0 002.16 5.784l-.1.12-.048.072a12.63 12.63 0 01-3.164 2.644l-.624.168.528.888.576-.312a13.357 13.357 0 004.152-2.144 16.007 16.007 0 003.192 2.112l.648.408 1.68-2.808-.912-.188a19.674 19.674 0 01-2.832-1.2 10.651 10.651 0 002.4-5.88v-.72a20.861 20.861 0 01-2.688.1h-5.088a10.35 10.35 0 01-1.44-.1v1.152a10.59 10.59 0 011.44-.1zm4.56 0a10.075 10.075 0 01-1.224 4.176 8.242 8.242 0 01-2.348-4.176zm14.952-2.64h2.616a10.119 10.119 0 011.44.1V8.572a10.119 10.119 0 01-1.44.1h-2.28a23.441 23.441 0 002.04-2.072l.144-.168.768-.864L33 4.484l-.144.888a21.816 21.816 0 01-.892 3.292h-3.38l2.16-.984-.5-.576a20.254 20.254 0 00-1.824-2.112l-.36-.5-.744.36.192.6a24.756 24.756 0 01.36 2.5l.024.288.048.432h-.984a10.351 10.351 0 01-1.44-.1v1.152a10.59 10.59 0 011.44-.1h2.808v2.76h-2.6a10.351 10.351 0 01-1.44-.1v1.152a10.59 10.59 0 011.44-.1h1.464a20.039 20.039 0 01-3.284 6.224l-.528.408.6.7.48-.48a19.275 19.275 0 003.868-3.58v3.816a7.516 7.516 0 01-.1 1.2l-.024.24h3.168a9.487 9.487 0 01-.12-1.44v-5.04a24.006 24.006 0 011.656 2.376l.528.888 1.892-2.424-.936-.408c-1.1-.552-2.3-1.1-3.144-1.416v-1.056h2.38a10.119 10.119 0 011.44.1v-1.16a10.119 10.119 0 01-1.44.1h-2.376zm9.672-.432v11.232a7.516 7.516 0 01-.1 1.2l-.024.24h3.192a9.487 9.487 0 01-.12-1.44V9.192h.768a9.531 9.531 0 011.344.1V8.14a9.3 9.3 0 01-1.344.1h-5.588V3.368a38.278 38.278 0 006-.384l.912-.144L45.1.008l-.7.528a12.211 12.211 0 01-5.976 1.848c-.36 0-.6-.024-.936-.048.048.648.072.984.072 1.824V9.2c0 5.88-.432 8.736-1.752 11.544l-.48.6.816.552.408-.6c2.856-3.288 3.912-6.576 3.936-12.1zm-12.648-5.76h-2.328a10.351 10.351 0 01-1.44-.1v1.152a10.59 10.59 0 011.44-.1h7.56a10.119 10.119 0 011.44.1V3.332a10.119 10.119 0 01-1.44.1h-2.208V1.704a9.487 9.487 0 01.12-1.44h-3.264a7.759 7.759 0 01.12 1.44zm28.344 16.734l.162.72a4.2 4.2 0 01.666-.144c4.878-.63 7.254-2.934 7.254-7.038S63.294 6.99 58.83 6.99c-4.842 0-8.1 3.132-8.1 7.776 0 2.664 1.584 4.752 3.6 4.752 3.042 0 4.968-4.482 5.094-11.9a4.115 4.115 0 013.258 2.124 7.693 7.693 0 01.9 3.87c0 2.9-1.062 4.914-3.1 5.94a4.977 4.977 0 01-2.318.614zM57.048 8.34c-.126 5.994-1.278 10.458-2.664 10.458-.846 0-1.494-1.746-1.494-4.014a9.513 9.513 0 01.756-4.05 5.358 5.358 0 013.418-2.916zm32.3-5.436a9.725 9.725 0 01.12-1.848 13.167 13.167 0 01-1.824.072h-9.266a17.093 17.093 0 01-1.776-.072 10.358 10.358 0 01.12 1.848v2.664a9.3 9.3 0 01-.12 1.824 13.518 13.518 0 011.8-.072h9.7c.528 0 .7.024 1.368.072a9.725 9.725 0 01-.12-1.848zM86.42 4.656v1.7h-6.794v-1.7zm0-.96h-6.794V2.084h6.792zm4.344 6.072a7.2 7.2 0 01.12-1.368 13.53 13.53 0 01-1.824.072H77.082a16.568 16.568 0 01-1.824-.072 7.533 7.533 0 01.12 1.368v1.776a7.533 7.533 0 01-.12 1.368 13.714 13.714 0 011.824-.072h12.36c.552 0 .768.024 1.44.072a7.533 7.533 0 01-.118-1.368zm-6.866 2.116h-1.8V9.436h1.8zm4.224 0h-1.9V9.436h1.9zm-8.352 0h-1.8V9.436h1.8zm-5.448 9.26l.456.984.72-.216a28.426 28.426 0 007.32-1.776c.12-.072.24-.1.312-.144a21.4 21.4 0 005.808 1.728l1.1.264 1.44-2.9-1.3.048a28.251 28.251 0 01-4.536-.5 14.476 14.476 0 004.152-3.912V14c-.6.048-1.416.072-3.024.072h-9.376a10.259 10.259 0 01-1.416-.1v1.152a9.574 9.574 0 011.416-.1h.648a13.8 13.8 0 003.24 3.768 22.518 22.518 0 01-6.118 2.256zm11.664-6.12a12.712 12.712 0 01-3.022 2.76 11 11 0 01-3.72-2.76zM70.386.84l-.576.792.408.288a23.958 23.958 0 012.472 2.9l.36.528 1.992-2.784-.7-.216a29.821 29.821 0 00-3.552-1.3zm3.552 10.752l-.168.6a39.194 39.194 0 01-4.006 6.912l-.624.648 3.24 1.776.214-.816a48.348 48.348 0 002.064-8.208l.192-.552zm-4.32-5.16l-.576.864.48.312a29.042 29.042 0 012.448 2.784l.384.576 1.968-2.88-.768-.24a22.534 22.534 0 00-3.48-1.176zm34.272.048h-2.5a16.364 16.364 0 01-1.8-.072 9.637 9.637 0 01.12 1.8v7.584a9.181 9.181 0 01-.12 1.8 13.518 13.518 0 011.8-.072h8.544a13.639 13.639 0 011.416.072 9.33 9.33 0 01-.12-1.8V8.208a9.33 9.33 0 01.12-1.8 12.974 12.974 0 01-1.8.072h-2.586V3.072h7.752a10.119 10.119 0 011.44.1V2.02a10.119 10.119 0 01-1.44.1H96.234a10.351 10.351 0 01-1.44-.1v1.152a10.59 10.59 0 011.44-.1h7.656zm.144.96v3.96h-1.488V7.44zm4.368 3.96h-1.584V7.44h1.584zm-1.584.96h1.584v4.2h-1.584zm-2.784 0v4.2h-1.488v-4.2zm8.33 7.776H98.586V8.352a9.487 9.487 0 01.12-1.44h-3.408a7.759 7.759 0 01.12 1.44v11.016a9.181 9.181 0 01-.12 1.8 13.518 13.518 0 011.8-.072h17.136a13.639 13.639 0 011.416.072 9.331 9.331 0 01-.12-1.8V8.352a9.487 9.487 0 01.12-1.44h-3.408a7.759 7.759 0 01.12 1.44zm14.88-12.96v-1.68h3.072a10.119 10.119 0 011.44.1V4.444a10.119 10.119 0 01-1.44.1h-3.072v-1.56c1.44-.048 1.656-.072 2.808-.144l1.44-.072-1.7-2.736-1.008.456a34.843 34.843 0 01-7.848 1.632l-.912.024.192.96.792-.048h3.408v1.488h-3.288a10.35 10.35 0 01-1.44-.1v1.152a10.59 10.59 0 011.44-.1h3.288v1.68h-2.28a16.364 16.364 0 01-1.8-.072 9.637 9.637 0 01.12 1.8v3.12a9.181 9.181 0 01-.12 1.8 13.518 13.518 0 011.8-.072h2.28v1.776h-2.808a10.351 10.351 0 01-1.44-.1v1.156a10.59 10.59 0 011.44-.1h2.808v2.02l-.864.024-1.584.024h-1.344l-1.06-.048.888 3.24 1.08-.36a80.788 80.788 0 009.216-2.328l.768-.168-.216-.96-.72.168c-1.056.12-2.28.216-3.336.288v-1.9h2.736a10.119 10.119 0 011.44.1v-1.152a10.119 10.119 0 01-1.44.1h-2.736v-1.78h2.76a9.341 9.341 0 011.368.072 9.33 9.33 0 01-.12-1.8v-3.12a9.33 9.33 0 01.12-1.8 12.084 12.084 0 01-1.776.072zm1.56 2.76h-1.656v-1.8h1.656zm-4.3-1.8v1.8h-1.56v-1.8zm2.64 2.76h1.656v1.9h-1.656zm-2.64 0v1.9h-1.56v-1.9zm9.5-4.032c-.048 6.648-1.08 10.656-3.5 13.7l-.624.528.7.672.552-.552c4.008-3.072 5.76-7.44 5.832-14.352h1.392a94.475 94.475 0 01-.456 11.568c-.144 1.08-.384 1.344-1.224 1.344a14.214 14.214 0 01-2.232-.24l.142 1.132.984.192a16.57 16.57 0 003.624.7c.864 0 1.272-.5 1.44-1.8.408-2.808.528-6.048.528-13.2v-.72a31.15 31.15 0 01-2.376.072h-1.8V5.62c.024-.288.024-.6.024-1.08 0-.312 0-.312-.024-2.832l.12-1.44h-3.192l.12 1.44v2.328l-.024 1.872h-1.176a10.351 10.351 0 01-1.44-.1V6.96a10.59 10.59 0 011.44-.1zm20.232-.384h-2.5a16.364 16.364 0 01-1.8-.072 9.637 9.637 0 01.12 1.8v7.584a9.18 9.18 0 01-.12 1.8 13.518 13.518 0 011.8-.072h8.544a13.639 13.639 0 011.416.072 9.33 9.33 0 01-.12-1.8V8.208a9.33 9.33 0 01.12-1.8 12.974 12.974 0 01-1.8.072h-2.582V3.072h7.75a10.118 10.118 0 011.44.1V2.02a10.119 10.119 0 01-1.44.1h-18.48a10.35 10.35 0 01-1.44-.1v1.152a10.59 10.59 0 011.44-.1h7.656zm.144.96v3.96h-1.488V7.44zm4.368 3.96h-1.584V7.44h1.584zm-1.584.96h1.584v4.2h-1.584zm-2.784 0v4.2h-1.488v-4.2zm8.334 7.776h-13.776V8.352a9.488 9.488 0 01.12-1.44h-3.408a7.759 7.759 0 01.12 1.44v11.016a9.182 9.182 0 01-.12 1.8 13.518 13.518 0 011.8-.072h17.136a13.639 13.639 0 011.416.072 9.332 9.332 0 01-.12-1.8V8.352a9.488 9.488 0 01.12-1.44h-3.408a7.759 7.759 0 01.12 1.44z"/></svg>
