<svg xmlns="http://www.w3.org/2000/svg" width="195.75" height="21.792"><g data-name="グループ 3"><path data-name="パス 9" d="M55.926 20.4v-.96h-9.408V2.4h-3.72v18zm6.648 0v-18h-3.84v18zm19.3 0v-18h-1.156v12L70.71 2.4h-3.96v18h1.152V4.512L80.814 20.4zm17.856 0v-.96H89.214v-7.944h8.832v-.96h-8.832V3.36h9.744V2.4h-13.44v18zm15.404-15.312a19.822 19.822 0 01-5.04 10.512c-1.92 2.16-5.52 4.464-7.512 4.776l.456.912a3.9 3.9 0 011.128-.48c4.92-1.44 8.232-3.528 10.728-6.768a31.768 31.768 0 015.688 7.416l2.592-2.832a38.975 38.975 0 00-7.488-5.664 22.647 22.647 0 003.48-8.832h-13.128a6.78 6.78 0 01-1.2-.12v1.2h.072l.336-.048a4.848 4.848 0 01.792-.072zm11.5 8.424a2.015 2.015 0 01.744-.48 16.931 16.931 0 004.56-3.192 24.976 24.976 0 015.536 5.784c-2.468 2.808-6.38 5.016-9.092 5.136l.292 1.028a5.673 5.673 0 011.052-.308c9.24-1.584 14.688-7.272 15.672-16.392h-10.032c.288-.552.552-1.128.744-1.608a6.53 6.53 0 01.48-1.08l-3.316-.792c-.648 4.392-4.248 9.984-7.152 11.112zm15.216-7.464a16.952 16.952 0 01-2.592 7.3 28.085 28.085 0 00-6.576-4.3 15.443 15.443 0 002.184-3zm18.144 1.632a33.058 33.058 0 00-6.624-3.888 4.567 4.567 0 01-1.248-.672l-.864 1.2c1.7.648 5.04 3.84 6.432 6.168zm-6.6 13.44l.24-.1a8.158 8.158 0 011.1-.312 23.614 23.614 0 008.352-3.384 14.158 14.158 0 006.048-9.528 4.184 4.184 0 01.384-1.32l-1.032-.384a4.1 4.1 0 01-.168 1.008c-1.032 3.744-4.08 6.936-8.352 8.784a23.9 23.9 0 01-7.656 1.9zm21.576-16.9v1.2a7.011 7.011 0 011.2-.12h12.864c-.24 4.416-1.272 7.56-3.36 10.224-1.872 2.52-5.568 4.8-7.944 4.9l.36.96a6.885 6.885 0 01.912-.312c8.856-1.776 13.248-6.768 13.848-15.672a3.07 3.07 0 001.392-.264 2.724 2.724 0 001.512-2.424A2.725 2.725 0 00193.042 0a2.725 2.725 0 00-2.712 2.712 2.581 2.581 0 00.552 1.632h-14.716a5.828 5.828 0 01-1.008-.1zM193.042.764a1.967 1.967 0 011.944 1.944 1.967 1.967 0 01-1.944 1.944 1.967 1.967 0 01-1.944-1.944 1.983 1.983 0 011.94-1.94z"/><path data-name="パス 10" d="M3.474 16.762l-.594.018h-.918l-.9-.036.756 2.862.774-.218a76.994 76.994 0 009.144-2.286c.216.612.342.954.666 1.962l.234.918 2.9-1.782-.648-.72c-1.014-1.258-2.144-2.554-3.926-4.534l-.36-.468-.666.414.324.486c.4.918.99 2.376 1.206 2.988-2.016.18-4.374.324-6.048.36l-.468.018a31.254 31.254 0 003.78-6.03l.432-.72-3.2-.81-.09.81a60.986 60.986 0 01-1.966 6.768zm.558-12.6l-.09.882a17.555 17.555 0 01-3.4 7.128l-.54.378.63.486.45-.414a15.266 15.266 0 005.562-6.876l.432-.72zm6.282-.018l-.828.2.234.684a16.327 16.327 0 003.546 7.2l.63.828 2.25-2.322-.846-.45a14.472 14.472 0 01-4.806-5.472zm16.542 4.122a21.108 21.108 0 002.318 8.73c1.152 2 2.268 2.988 3.384 2.988a1.4 1.4 0 001.228-.684 3.357 3.357 0 00.324-1.782c0-.774-.018-1.854-.054-2.52l.054-.72-.882-.29.036.864-.018.27c-.108 1.746-.18 2.124-.45 2.124s-.922-.758-1.458-1.744a17.647 17.647 0 01-1.964-7.236h3.456a7.589 7.589 0 011.08.072v-.864a7.589 7.589 0 01-1.08.072h-3.49c-.054-.684-.054-.936-.072-2.052v-.666l.054-1.08h-2.718l.072 1.116c.036 1.062.036 1.224.108 2.2l.018.486h-7.686a7.763 7.763 0 01-1.08-.072v.864a7.943 7.943 0 011.08-.072zm-2.898 3.922h1.71a7.589 7.589 0 011.08.072v-.862a7.589 7.589 0 01-1.08.072h-5.85a7.763 7.763 0 01-1.08-.072v.864a7.943 7.943 0 011.08-.072h1.62v4.788c-.558.054-1.71.108-2.592.144h-.72l.954 2.826.684-.288a56.148 56.148 0 007.51-2.628l.576-.144-.18-.72-.522.144c-1.062.18-2.466.378-3.186.432zm6.12-8.316l-.486.54.306.324a19.25 19.25 0 011.4 2.106l.27.612 1.858-1.866-.666-.306a24.928 24.928 0 00-2.3-1.152z"/></g></svg>
