<svg xmlns="http://www.w3.org/2000/svg" width="48" height="48"><defs><clipPath id="a"><path d="M0 0h48v48H0z"/></clipPath></defs><g data-name="アートボード – 2" clip-path="url(#a)" fill="#fff"><path data-name="パス 7" d="M18.324 13.556h10.4a10.962 10.962 0 011.56.1v-1.248a11.213 11.213 0 01-1.56.1h-10.14c.234-1.014.338-1.664.572-3.3l.286-1.274-3.354-.312-.052 1.3a49.085 49.085 0 01-.624 3.588H9.666a11.213 11.213 0 01-1.56-.1v1.248c.754-.078.806-.078 1.352-.1h5.72a25.693 25.693 0 01-7.306 13.258l-.806.494.806.91.78-.728a25.978 25.978 0 006.63-6.916h4.212v7.748H12.89a11.213 11.213 0 01-1.56-.1v1.244c.754-.078.806-.078 1.352-.104H28.8a10.962 10.962 0 011.56.1V28.22a11.213 11.213 0 01-1.56.1h-6.11v-7.744h4.394a10.962 10.962 0 011.56.1v-1.244a11.213 11.213 0 01-1.56.1H15.906a24.69 24.69 0 002.366-5.8z"/><path data-name="パス 8" d="M34.61 19.1a2.532 2.532 0 01-.05.6h1.16a2.584 2.584 0 01-.05-.6v-3.73a10.6 10.6 0 01.76 1.5l.12.32 1.01-.98-.31-.25a18.652 18.652 0 00-1.58-1.2v-.59h1.31l.14.01c.05 0 .09.01.19.02v-.46a4.749 4.749 0 01-.6.03h-1.04V12.2c.21-.03.65-.12 1.14-.22l.43-.09-.99-1.01-.35.22a13.551 13.551 0 01-2.75 1.05l-.46.07.14.33.41-.04c.42-.03.88-.08 1.37-.15v1.41h-1.35a3.455 3.455 0 01-.6-.03v.46a3.84 3.84 0 01.5-.03h1.17a16.794 16.794 0 01-1.6 3.9l-.23.28.34.22.23-.31a16.441 16.441 0 001.54-2.19zm3.22-1.67h1.19a4.15 4.15 0 01-.05-.6v-4.38a3.953 3.953 0 01.05-.6h-1.19a3.122 3.122 0 01.05.6v4.38a3.132 3.132 0 01-.04.5zm.48 1.87l.77.12a6.9 6.9 0 001.49.28c.36 0 .51-.23.51-.77v-7.31a3.953 3.953 0 01.05-.6h-1.21a3.123 3.123 0 01.05.6v6.85c0 .39-.06.43-.63.43-.34 0-.6-.01-1.08-.05zm-4.92 4.5a2.122 2.122 0 01.5-.05h3.17l.56 1.23h-4a2.825 2.825 0 01-.5-.05v.5a2.921 2.921 0 01.5-.05h4.19c.16.35.42.88.71 1.46a4.829 4.829 0 00-2.21-.52c-1.67 0-2.79.78-2.79 1.94 0 1.41 1.2 2.1 3.67 2.1a16.752 16.752 0 002.17-.1v-1.05a10.778 10.778 0 01-2.22.17c-1.91 0-2.81-.41-2.81-1.28s.78-1.44 2.01-1.44a3.032 3.032 0 012.6 1.1l.96-.56a13.194 13.194 0 01-.95-1.82h1.48a2.175 2.175 0 01.5.05v-.5a3.023 3.023 0 01-.5.05h-1.66l-.11-.24c-.24-.51-.34-.74-.44-.99h1.95a2.175 2.175 0 01.5.05v-.5a3.023 3.023 0 01-.5.05h-2.14l-.11-.25a9.957 9.957 0 01-.49-1.25l-1.07.36a2.342 2.342 0 01.23.44c.22.55.23.56.29.7h-2.99a2.921 2.921 0 01-.5-.05z"/><path data-name="パス 5" d="M13.63 34.39v2.39h-2.28a2.921 2.921 0 01-.5-.05v.5a2.122 2.122 0 01.5-.05h2.28v2.19a1.608 1.608 0 00.45 1.27c.37.33.77.41 1.97.41.66 0 1.6-.02 2.08-.05a1.577 1.577 0 01.19-.01c.08 0 .16.01.27.02v-1.02a17.364 17.364 0 01-2.59.1c-.72 0-.9-.04-1.09-.22a.793.793 0 01-.2-.6v-2.09h3.92a2.175 2.175 0 01.5.05v-.5a3.023 3.023 0 01-.5.05h-3.92v-2.39h3.13a2.175 2.175 0 01.5.05v-.5a3.023 3.023 0 01-.5.05h-5.97a2.921 2.921 0 01-.5-.05v.5a2.122 2.122 0 01.5-.05zm15.81 2.44a2.236 2.236 0 01-.46.05h-6.97a1.747 1.747 0 01-.45-.05v.7a1.353 1.353 0 01.45-.05h6.97a2.581 2.581 0 01.46.05zm5.59 4.53a2.921 2.921 0 01-.05-.5v-4.45a9.57 9.57 0 013.71 2.44l.71-1-.24-.15a11.733 11.733 0 00-4.18-1.72v-2.21a3.023 3.023 0 01.05-.5h-1.17a2.175 2.175 0 01.05.5v7.09a2.122 2.122 0 01-.05.5zm2.37-7.66v1.34h.56V33.7zm1.14 0v1.34h.56V33.7z"/></g></svg>
